# Blender v2.78 (sub 0) OBJ File: ''
# www.blender.org
v -2.950000 1.000000 5.000000
v -0.950000 1.000000 5.000000
v -2.950000 1.000000 3.000000
v -0.950000 1.000000 3.000000
vn 0.0000 1.0000 0.0000
s off
f 2//1 3//1 1//1
f 2//1 4//1 3//1
v 3.000000 -1.000000 4.650000
v 5.000000 -1.000000 4.650000
v 3.000000 -1.000000 2.650000
v 5.000000 -1.000000 2.650000
vn 0.0000 1.0000 0.0000
s off
f 6//2 7//2 5//2
f 6//2 8//2 7//2
v 3.000000 -1.000000 2.716025
v 5.000000 -1.000000 2.716025
v 3.000000 0.000000 0.983975
v 5.000000 0.000000 0.983975
vn 0.0000 0.8660 0.5000
s off
f 10//3 11//3 9//3
f 10//3 12//3 11//3
v -1.000000 1.000000 5.750000
v 1.000000 1.000000 5.750000
v -1.000000 1.000000 3.750000
v 1.000000 1.000000 3.750000
vn 0.0000 1.0000 0.0000
s off
f 14//4 15//4 13//4
f 14//4 16//4 15//4
v -3.000000 0.000009 3.000000
v -1.000000 0.000009 3.000000
v -3.000000 0.000009 1.000000
v -1.000000 0.000009 1.000000
vn 0.0000 1.0000 0.0000
s off
f 18//5 19//5 17//5
f 18//5 20//5 19//5
v -1.000000 1.000000 4.350000
v 1.000000 1.000000 4.350000
v -1.000000 1.000000 2.350000
v 1.000000 1.000000 2.350000
vn 0.0000 1.0000 0.0000
s off
f 22//6 23//6 21//6
f 22//6 24//6 23//6
v 1.000000 0.000009 3.000000
v 3.000000 0.000009 3.000000
v 1.000000 0.000009 1.000000
v 3.000000 0.000009 1.000000
vn 0.0000 1.0000 0.0000
s off
f 26//7 27//7 25//7
f 26//7 28//7 27//7
v -1.000000 0.000000 3.000000
v 1.000000 0.000000 3.000000
v -1.000000 0.000000 1.000000
v 1.000000 0.000000 1.000000
vn 0.0000 1.0000 0.0000
s off
f 30//8 31//8 29//8
f 30//8 32//8 31//8
v -1.000000 1.000000 2.366025
v 1.000000 1.000000 2.366025
v -1.000000 0.000000 0.633975
v 1.000000 0.000000 0.633975
vn 0.0000 0.8660 -0.5000
s off
f 34//9 35//9 33//9
f 34//9 36//9 35//9
v -3.000000 0.000000 -1.000000
v -1.000000 0.000000 -1.000000
v -3.000000 0.000000 -3.000000
v -1.000000 0.000000 -3.000000
vn 0.0000 1.0000 0.0000
s off
f 38//10 39//10 37//10
f 38//10 40//10 39//10
v -3.000000 0.000000 1.000000
v -1.000000 0.000000 1.000000
v -3.000000 0.000000 -1.000000
v -1.000000 0.000000 -1.000000
vn 0.0000 1.0000 0.0000
s off
f 42//11 43//11 41//11
f 42//11 44//11 43//11
v 3.000000 0.000000 -1.000000
v 5.000000 0.000000 -1.000000
v 3.000000 0.000000 -3.000000
v 5.000000 0.000000 -3.000000
vn 0.0000 1.0000 0.0000
s off
f 46//12 47//12 45//12
f 46//12 48//12 47//12
v 1.000000 0.000000 -1.000000
v 3.000000 0.000000 -1.000000
v 1.000000 0.000000 -3.000000
v 3.000000 0.000000 -3.000000
vn 0.0000 1.0000 0.0000
s off
f 50//13 51//13 49//13
f 50//13 52//13 51//13
v -1.000000 0.000000 -1.000000
v 1.000000 0.000000 -1.000000
v -1.000000 0.000000 -3.000000
v 1.000000 0.000000 -3.000000
vn 0.0000 1.0000 0.0000
s off
f 54//14 55//14 53//14
f 54//14 56//14 55//14
v 3.000000 0.000000 1.000000
v 5.000000 0.000000 1.000000
v 3.000000 0.000000 -1.000000
v 5.000000 0.000000 -1.000000
vn 0.0000 1.0000 0.0000
s off
f 58//15 59//15 57//15
f 58//15 60//15 59//15
v 1.000000 0.000000 1.000000
v 3.000000 0.000000 1.000000
v 1.000000 0.000000 -1.000000
v 3.000000 0.000000 -1.000000
vn 0.0000 1.0000 0.0000
s off
f 62//16 63//16 61//16
f 62//16 64//16 63//16
v -1.000000 0.000000 1.000000
v 1.000000 0.000000 1.000000
v -1.000000 0.000000 -1.000000
v 1.000000 0.000000 -1.000000
vn 0.0000 1.0000 0.0000
s off
f 66//17 67//17 65//17
f 66//17 68//17 67//17
